<?xml version="1.0" encoding="utf-8"?>
<!-- Generator: Adobe Illustrator 24.2.3, SVG Export Plug-In . SVG Version: 6.00 Build 0)  -->
<svg version="1.1"
	 id="svg2989" xmlns:cc="http://creativecommons.org/ns#" xmlns:dc="http://purl.org/dc/elements/1.1/" xmlns:inkscape="http://www.inkscape.org/namespaces/inkscape" xmlns:rdf="http://www.w3.org/1999/02/22-rdf-syntax-ns#" xmlns:sodipodi="http://sodipodi.sourceforge.net/DTD/sodipodi-0.dtd" xmlns:svg="http://www.w3.org/2000/svg"
	 xmlns="http://www.w3.org/2000/svg" xmlns:xlink="http://www.w3.org/1999/xlink" x="0px" y="0px" viewBox="0 0 1256.3 300"
	 style="enable-background:new 0 0 1256.3 300;" xml:space="preserve">
<style type="text/css">
	.st0{fill:#1593EB;stroke:#1593EB;stroke-miterlimit:10;}
	.st1{fill:#1593EB;}
	.st2{fill:none;}
</style>
<sodipodi:namedview  bordercolor="#666666" borderopacity="1" gridtolerance="10" guidetolerance="10" id="namedview2995" inkscape:current-layer="svg2989" inkscape:cx="960" inkscape:cy="896" inkscape:pageopacity="0" inkscape:pageshadow="2" inkscape:window-height="480" inkscape:window-maximized="0" inkscape:window-width="640" inkscape:window-x="0" inkscape:window-y="25" inkscape:zoom="0.13169643" objecttolerance="10" pagecolor="#ffffff" showgrid="false">
	</sodipodi:namedview>
<path class="st0" d="M346.7,194.4c-10.8-9.6-24-16.2-40.2-19.2c5.4-6,7.8-12.6,7.8-19.2c0-10.2-4.8-18.6-14.4-25.8
	c-9.6-7.2-21-10.8-34.2-10.8v-18.6c0-21.6-7.8-40.2-24-55.8c-15.6-15.6-34.8-23.4-57-23.4s-40.8,7.8-57,23.4
	c-13.2,12.6-20.4,27.6-22.8,44.4c-10.2,3.6-19.8,8.4-28.2,15c-18.6,14.4-28.2,31.2-28.2,51c0,1.2,0,3.6,0.6,6
	c-14.4,4.8-26.4,12.6-35.4,22.8c-9,10.2-13.2,21.6-13.2,34.2c0,17.4,8.4,32.4,24.6,44.4c16.8,12.6,36.6,18.6,59.4,18.6h204.6
	c19.8,0,37.2-5.4,51-15.6c14.4-10.8,21-23.4,21-38.4C362.9,215.4,357.5,204.6,346.7,194.4z M212.9,253.2c-1.2,1.8-3,2.4-5.4,2.4
	h-11.4h-28.2c-2.4,0-4.2-0.6-5.4-2.4s-1.8-3.6-1.2-6l14.4-46.8c-4.2-2.4-7.8-5.4-10.2-9.6c-2.4-4.2-3.6-8.4-3.6-13.8
	c0-7.2,2.4-13.2,7.8-18.6s11.4-7.8,18.6-7.8s13.2,2.4,18.6,7.8s7.8,11.4,7.8,18.6c0,4.8-1.2,9.6-3.6,13.8c-2.4,4.2-6,7.2-10.2,9.6
	l14.4,46.8C214.1,249.6,214.1,251.4,212.9,253.2z M232.1,123.6c-7.2-10.8-18-19.8-31.8-27c-16.2-8.4-34.2-12.6-54-12.6
	c-0.6,0-1.8,0-2.4,0c2.4-5.4,5.4-10.2,10.2-14.4c9-9,19.8-13.2,32.4-13.2s23.4,4.2,32.4,13.2s13.2,19.2,13.2,31.8
	C232.1,100.8,232.1,123.6,232.1,123.6z"/>
<g>
	<g>
		<path class="st1" d="M441.5,171c0.6,36,25.2,51,54,51c20.4,0,33-3.6,43.8-7.8l4.8,19.2c-10.2,4.2-27.6,9.6-52.8,9.6
			c-48.6,0-78-30-78-73.8c0-44.4,28.2-79.2,74.4-79.2c51.6,0,65.4,42,65.4,69c0,5.4-0.6,9.6-1.2,12.6H441.5V171z M525.5,151.8
			c0-16.8-7.2-43.2-39.6-43.2c-29.4,0-42,24.6-44.4,43.2H525.5z"/>
		<path class="st1" d="M621.5,51.6c0,9-6.6,16.8-18.6,16.8c-10.2,0-17.4-7.2-17.4-16.8c0-9,7.2-16.8,18-16.8
			C614.3,34.8,621.5,42.6,621.5,51.6z M589.7,239.4V93h28.8v146.4H589.7z"/>
		<path class="st1" d="M665.9,138.6c0-17.4-0.6-31.8-1.2-45.6h25.2l1.2,28.8h1.2C699.5,102,716.9,90,736.7,90c3,0,5.4,0,7.8,0.6
			v25.2c-3-0.6-6-0.6-9.6-0.6c-20.4,0-34.8,14.4-38.4,34.2c-0.6,3.6-1.2,8.4-1.2,12.6v78h-28.8L665.9,138.6L665.9,138.6z"/>
		<path class="st1" d="M773.3,141c0-18.6-0.6-33.6-1.2-48h25.8l1.8,25.2h0.6c11.4-18,30.6-28.2,56.4-28.2c38.4,0,67.2,30,67.2,74.4
			c0,52.8-34.8,78.6-72,78.6c-21,0-39.6-8.4-48.6-22.8h-0.6V300h-28.8L773.3,141L773.3,141z M802.1,180c0,3.6,0.6,7.2,1.2,10.8
			c5.4,18.6,22.8,31.2,43.2,31.2c30.6,0,48-23.4,48-57c0-29.4-16.8-54.6-47.4-54.6c-19.8,0-38.4,12.6-43.8,33
			c-1.2,3.6-1.8,7.2-1.8,10.8V180L802.1,180L802.1,180z"/>
		<path class="st1" d="M1048.1,239.4l-2.4-18.6h-0.6c-9,11.4-25.8,21.6-48.6,21.6c-31.8,0-48.6-21-48.6-42
			c0-35.4,34.2-55.2,95.4-54.6v-3c0-12-3.6-34.2-36-33.6c-15,0-30,4.2-41.4,10.8l-6.6-18c13.2-7.8,32.4-12.6,52.2-12.6
			c48.6,0,60.6,30.6,60.6,60V204c0,12.6,0.6,25.2,2.4,34.8h-26.4L1048.1,239.4L1048.1,239.4z M1043.3,165
			c-31.2-0.6-67.2,4.8-67.2,33c0,17.4,12.6,25.8,27,25.8c21,0,34.2-12,38.4-24.6c1.2-3,1.2-6,1.2-8.4V165H1043.3z"/>
		<path class="st1" d="M1255.1,24.6v177.6c0,13.2,0.6,27.6,1.2,37.8h-25.8l-1.2-25.2h-0.6c-9,16.2-28.2,28.8-54,28.8
			c-38.4,0-67.8-30-67.8-74.4c0-49.2,32.4-78.6,71.4-78.6c24.6,0,40.8,10.8,48,22.2h0.6V25.2L1255.1,24.6L1255.1,24.6z
			 M1226.3,152.4c0-3.6-0.6-7.8-1.2-11.4c-4.2-16.8-19.8-30.6-42-30.6c-30,0-48,24-48,56.4c0,30,16.2,54.6,47.4,54.6
			c19.2,0,36.6-12,42-31.8c1.2-3.6,1.2-7.2,1.2-11.4v-25.8L1226.3,152.4L1226.3,152.4z"/>
	</g>
</g>
<polygon class="st2" points="385.1,0 416.9,0 416.9,0 "/>
</svg>
