<?xml version="1.0" encoding="utf-8"?>
<!-- Generator: Adobe Illustrator 24.2.3, SVG Export Plug-In . SVG Version: 6.00 Build 0)  -->
<svg version="1.1"
	 id="svg2989" sodipodi:docname="cloud_font_awesome.svg" xmlns:cc="http://creativecommons.org/ns#" xmlns:dc="http://purl.org/dc/elements/1.1/" xmlns:inkscape="http://www.inkscape.org/namespaces/inkscape" xmlns:rdf="http://www.w3.org/1999/02/22-rdf-syntax-ns#" xmlns:sodipodi="http://sodipodi.sourceforge.net/DTD/sodipodi-0.dtd" xmlns:svg="http://www.w3.org/2000/svg"
	 xmlns="http://www.w3.org/2000/svg" xmlns:xlink="http://www.w3.org/1999/xlink" x="0px" y="0px" viewBox="0 0 603.6 435"
	 style="enable-background:new 0 0 603.6 435;" xml:space="preserve">
<style type="text/css">
	.st0{fill:#1593EB;stroke:#1593EB;stroke-miterlimit:10;}
</style>
<sodipodi:namedview  bordercolor="#666666" borderopacity="1" gridtolerance="10" guidetolerance="10" id="namedview2995" inkscape:current-layer="svg2989" inkscape:cx="960" inkscape:cy="896" inkscape:pageopacity="0" inkscape:pageshadow="2" inkscape:window-height="480" inkscape:window-maximized="0" inkscape:window-width="640" inkscape:window-x="0" inkscape:window-y="25" inkscape:zoom="0.13169643" objecttolerance="10" pagecolor="#ffffff" showgrid="false">
	</sodipodi:namedview>
<path class="st0" d="M576.7,287.7c-17.6-16.4-39.9-27-66.8-31.7c8.6-9.9,12.9-20.7,12.9-32.5c0-16.6-7.8-30.8-23.5-42.6
	c-15.7-11.8-34.6-17.7-56.8-17.7v-30.9c0-36.1-13.2-67.1-39.5-93.1c-26.5-25.7-58-38.7-94.7-38.7s-68.3,13-94.6,38.9
	c-21.6,21.2-34.3,45.9-38.2,74c-17.2,5.8-33,14.2-47.5,25c-31.4,23.5-47.1,51.9-47.1,85.2c0,2.4,0.2,5.7,0.6,10.1
	c-24.3,8.5-43.8,21.3-58.7,38.5S0.5,308.3,0.5,329c0,29,13.8,53.9,41.3,74.5s60.6,31,99.3,31h341.5c33.3,0,61.7-8.8,85.2-26.5
	s35.3-39,35.3-63.9C603.1,322.9,594.3,304.1,576.7,287.7z M352.8,385.8c-2.3,3-5.2,4.4-8.9,4.4h-18.8h-46.7c-3.6,0-6.6-1.5-8.9-4.4
	s-2.8-6.1-1.7-9.6l23.6-78.2c-7.3-3.9-13.1-9.2-17.4-16.1c-4.3-6.8-6.5-14.5-6.5-22.9c0-12.1,4.3-22.4,12.8-30.9
	s18.8-12.8,30.9-12.8c12.1,0,22.4,4.3,30.9,12.8s12.8,18.8,12.8,30.9c0,8.4-2.2,16.1-6.5,22.9S338.3,294.1,331,298l23.6,78.2
	C355.7,379.6,355.1,382.8,352.8,385.8z M384.9,169.2c-12.4-18.3-30.2-33.4-53.5-45.4c-26.9-13.8-56.9-20.7-89.9-20.7
	c-1.4,0-2.8,0-4.1,0c3.7-8.7,9.3-16.7,16.7-24c15-14.7,33-22.1,54.2-22.1s39.2,7.4,54.2,22.1c15,14.7,22.5,32.5,22.5,53.3v36.8
	H384.9z"/>
</svg>
