<?xml version="1.0" standalone="no"?>
<!DOCTYPE svg PUBLIC "-//W3C//DTD SVG 20010904//EN"
 "http://www.w3.org/TR/2001/REC-SVG-20010904/DTD/svg10.dtd">
<svg version="1.0" xmlns="http://www.w3.org/2000/svg"
 width="1208.000000pt" height="1208.000000pt" viewBox="0 0 1208.000000 1208.000000"
 preserveAspectRatio="xMidYMid meet">
<metadata>
Created by potrace 1.11, written by Peter Selinger 2001-2013
</metadata>
<g transform="translate(0.000000,1208.000000) scale(0.100000,-0.100000)"
fill="#000000" stroke="none">
<path d="M5979 10386 c-2 -2 -42 -7 -89 -10 -47 -4 -94 -8 -105 -10 -11 -2
-45 -8 -75 -12 -30 -4 -57 -9 -60 -9 -3 -1 -23 -5 -45 -10 -22 -4 -89 -21
-150 -37 -133 -35 -126 -33 -147 -42 -9 -4 -22 -9 -30 -10 -7 -1 -30 -10 -52
-19 -21 -9 -42 -17 -46 -17 -7 0 -60 -23 -92 -41 -10 -5 -25 -9 -33 -9 -8 0
-15 -4 -15 -10 0 -5 -8 -10 -18 -10 -10 0 -22 -4 -27 -9 -6 -4 -55 -32 -110
-61 -101 -54 -157 -89 -163 -102 -2 -5 -9 -8 -16 -8 -7 0 -29 -12 -48 -27 -20
-16 -46 -35 -58 -43 -12 -8 -28 -19 -34 -25 -6 -5 -32 -26 -56 -45 -71 -55
-79 -61 -153 -130 -136 -126 -269 -268 -335 -358 -9 -13 -25 -33 -35 -45 -10
-12 -26 -34 -35 -49 -9 -16 -20 -28 -24 -28 -4 0 -8 -6 -8 -14 0 -8 -4 -16 -8
-18 -13 -5 -113 -172 -161 -268 -24 -47 -47 -91 -53 -97 -6 -7 -7 -13 -3 -13
4 0 3 -6 -2 -12 -8 -10 -63 -146 -69 -168 0 -3 -4 -14 -8 -25 -20 -52 -49
-147 -51 -170 -1 -5 -7 -28 -13 -51 -7 -22 -17 -65 -22 -95 -6 -30 -13 -67
-16 -84 -3 -16 -7 -39 -8 -49 -1 -14 -16 -24 -56 -38 -48 -16 -143 -54 -235
-94 -16 -7 -34 -13 -39 -12 -5 0 -12 -4 -15 -9 -3 -4 -54 -32 -113 -62 -110
-55 -308 -169 -343 -198 -5 -4 -22 -16 -36 -25 -14 -9 -34 -24 -43 -33 -9 -9
-16 -14 -16 -10 0 4 -7 0 -15 -7 -8 -7 -26 -22 -41 -33 -14 -11 -41 -32 -59
-47 -18 -16 -35 -28 -38 -28 -23 0 -417 -394 -417 -416 0 -3 -9 -15 -21 -27
-27 -30 -145 -207 -161 -243 -7 -16 -15 -31 -19 -34 -10 -8 -97 -196 -105
-225 -1 -5 -13 -41 -27 -80 -25 -69 -68 -253 -83 -350 -4 -27 -8 -143 -8 -257
l-1 -208 -30 -6 c-16 -3 -34 -10 -40 -13 -10 -8 -108 -45 -112 -44 -1 1 -61
-28 -133 -63 -72 -35 -136 -64 -141 -64 -5 0 -9 -4 -9 -8 0 -5 -17 -16 -37
-26 -45 -21 -278 -176 -310 -205 -12 -12 -25 -21 -28 -21 -3 0 -16 -10 -29
-22 -13 -13 -51 -47 -84 -76 -50 -44 -117 -110 -187 -186 -6 -6 -34 -40 -63
-76 -29 -36 -58 -72 -65 -80 -17 -19 -97 -138 -97 -144 0 -2 -18 -34 -40 -70
-22 -36 -40 -68 -40 -71 0 -2 -14 -34 -30 -70 -17 -36 -30 -67 -30 -70 0 -2
-5 -16 -12 -32 -6 -15 -13 -34 -15 -40 -1 -7 -5 -19 -6 -25 -2 -7 -7 -20 -10
-28 -16 -40 -40 -154 -54 -255 -9 -71 -9 -359 1 -430 10 -76 14 -100 16 -100
1 0 3 -11 5 -25 9 -65 45 -190 71 -247 8 -17 14 -34 14 -39 0 -23 140 -284
167 -312 7 -7 13 -17 13 -22 0 -5 6 -15 12 -22 12 -13 70 -86 93 -117 19 -27
304 -312 309 -309 2 2 20 -10 39 -27 19 -16 47 -39 63 -50 15 -11 33 -26 40
-32 7 -7 15 -13 19 -13 3 0 23 -13 43 -29 33 -26 316 -201 326 -201 2 0 55
-25 119 -55 63 -30 119 -55 124 -55 4 -1 26 -9 48 -20 22 -11 47 -19 56 -20 9
0 19 -3 22 -7 8 -7 132 -52 157 -57 23 -4 73 -17 90 -23 8 -3 21 -7 29 -9 7
-1 34 -8 60 -14 120 -28 173 -39 241 -50 36 -5 79 -12 95 -15 17 -2 55 -7 85
-10 30 -3 87 -8 125 -13 94 -10 7368 -9 7470 1 123 12 153 16 250 33 50 9 99
18 110 19 11 2 20 4 20 5 0 1 11 3 25 5 39 6 207 52 229 64 11 6 24 10 28 10
4 -1 15 0 23 4 8 3 38 13 65 23 28 10 55 21 60 24 6 4 27 13 48 20 59 19 317
152 345 178 7 6 17 12 22 12 5 0 15 6 22 14 8 7 28 21 45 29 17 9 37 22 45 30
7 7 29 23 48 37 122 83 316 267 410 390 19 25 38 47 43 48 4 2 7 8 7 14 0 6
14 28 31 49 17 21 28 39 24 39 -3 0 1 7 9 16 9 8 16 22 16 30 0 8 4 14 8 14 6
0 32 52 36 72 0 3 5 10 9 15 23 22 103 265 113 343 3 25 10 68 14 95 26 158
-13 520 -69 650 -5 11 -26 60 -47 109 -50 118 -131 247 -232 370 -52 63 -163
176 -174 176 -5 0 -6 5 -3 10 3 5 3 10 -2 10 -7 0 -26 15 -93 73 -14 12 -54
44 -90 70 -36 27 -72 53 -81 60 -66 50 -291 174 -414 228 -52 23 -202 79 -220
83 -5 1 -23 7 -40 13 -42 17 -251 70 -306 78 -53 8 -79 21 -64 33 6 4 32 38
59 75 87 124 156 300 172 437 10 93 5 232 -11 300 -5 19 -9 40 -9 45 -1 9 -34
119 -42 140 -2 6 -22 42 -44 80 -22 39 -43 78 -46 88 -4 9 -10 17 -15 17 -5 0
-9 5 -9 10 0 29 -215 244 -310 310 -19 13 -37 27 -40 30 -11 12 -160 97 -235
133 -33 16 -96 43 -140 59 -71 26 -94 33 -130 41 -5 2 -14 5 -20 9 -15 9 -229
49 -294 55 -31 3 -99 7 -151 10 -52 3 -97 7 -99 9 -2 2 -6 185 -7 406 -1 222
-5 421 -7 443 -3 22 -8 63 -11 90 -4 28 -8 61 -10 75 -3 14 -7 41 -10 60 -9
57 -20 107 -36 170 -6 25 -13 54 -15 65 -2 11 -4 20 -5 20 -1 0 -3 7 -5 15 -2
8 -15 49 -30 90 -14 41 -27 80 -29 85 -1 6 -10 27 -19 49 -9 21 -17 40 -17 43
0 11 -112 233 -120 238 -6 4 -8 11 -5 16 4 5 1 9 -4 9 -6 0 -11 7 -11 15 0 8
-4 15 -10 15 -5 0 -10 6 -10 14 0 24 -191 292 -279 391 -57 64 -274 277 -316
310 -21 17 -43 35 -49 40 -6 6 -38 30 -71 55 -33 25 -61 48 -63 53 -2 4 -10 7
-18 7 -8 0 -14 4 -14 9 0 5 -15 16 -34 25 -18 8 -39 22 -46 31 -7 8 -16 15
-21 15 -5 0 -34 16 -65 36 -55 35 -286 154 -299 154 -4 0 -23 7 -43 16 -21 9
-46 20 -57 25 -119 51 -430 128 -590 145 -27 3 -66 8 -85 11 -41 6 -475 14
-481 9z m411 -1161 c51 -5 98 -14 120 -22 8 -3 24 -7 35 -8 55 -8 181 -53 285
-102 63 -30 117 -57 120 -61 3 -4 17 -13 33 -19 15 -7 27 -17 27 -23 0 -5 5
-10 11 -10 9 0 59 -34 96 -65 6 -5 25 -21 42 -35 144 -120 302 -318 380 -478
29 -59 57 -115 62 -124 5 -10 9 -25 9 -33 0 -8 4 -23 10 -33 14 -25 50 -174
44 -184 -3 -4 -2 -8 3 -8 4 0 9 -12 10 -27 1 -16 5 -44 8 -63 5 -30 14 -890 9
-890 -1 0 -40 48 -87 108 -90 114 -247 278 -337 352 -30 25 -57 47 -60 51 -3
3 -43 34 -90 68 -47 34 -92 68 -100 74 -8 7 -28 18 -43 26 -15 8 -27 18 -27
23 0 4 -4 8 -9 8 -4 0 -60 31 -122 68 -130 78 -339 181 -479 237 -52 20 -104
41 -115 45 -58 23 -272 91 -295 94 -8 2 -22 5 -30 8 -25 10 -215 53 -280 63
-51 8 -95 16 -110 20 -8 2 -40 7 -70 10 -30 3 -70 8 -89 11 -70 11 -293 25
-448 28 -68 1 -125 4 -127 7 -3 2 11 36 31 74 31 61 52 95 124 202 14 21 122
144 157 180 7 7 18 13 23 13 6 0 8 4 4 9 -3 5 4 13 16 16 11 4 18 9 15 13 -3
3 5 12 18 21 12 9 63 46 112 83 49 37 143 94 209 127 139 69 140 69 215 90 25
6 52 15 60 18 8 4 22 7 30 8 8 0 29 4 45 8 53 13 79 17 135 23 30 3 56 7 58 8
4 5 308 -3 362 -9z m-25 -3166 c76 -14 77 -15 122 -28 60 -17 193 -80 213
-101 3 -3 16 -13 31 -22 119 -76 264 -266 314 -415 40 -118 58 -302 40 -408
-35 -200 -107 -344 -240 -480 -66 -67 -110 -101 -233 -180 -1 -1 5 -18 13 -38
8 -21 12 -37 9 -37 -4 0 -2 -6 4 -13 6 -7 13 -24 15 -37 2 -14 7 -32 10 -40 7
-18 60 -191 63 -206 1 -6 15 -56 32 -110 70 -229 85 -279 85 -284 0 -3 4 -16
9 -30 6 -14 14 -38 18 -55 4 -16 36 -120 69 -230 34 -110 64 -207 66 -215 2
-8 4 -15 5 -15 1 0 3 -8 5 -18 3 -16 41 -144 68 -227 34 -107 -9 -212 -107
-262 -40 -21 -51 -21 -746 -21 -700 0 -705 0 -745 21 -51 27 -66 40 -92 77
-19 28 -39 90 -35 108 1 4 5 23 8 43 3 19 13 58 23 87 10 29 19 57 21 62 5 21
8 31 23 80 9 28 21 70 28 95 15 55 14 52 22 70 3 8 22 71 42 140 20 69 39 132
42 140 3 8 7 21 9 28 1 7 41 142 89 300 48 158 88 292 89 297 2 11 39 131 63
205 26 80 26 88 -4 106 -105 64 -142 93 -210 164 -51 53 -131 168 -156 225
-10 22 -22 47 -26 56 -5 8 -19 55 -31 105 -24 91 -31 247 -17 344 9 67 63 237
78 250 4 3 16 23 27 46 21 42 101 145 137 177 11 10 36 33 55 51 35 32 165
121 178 121 4 1 16 6 27 12 104 56 355 88 490 62z"/>
</g>
</svg>
